<svg id="Layer_1" data-name="Layer 1" xmlns="http://www.w3.org/2000/svg" viewBox="0 0 171.66 238.36"><defs><style>.cls-1{fill:#62bd53;}.cls-2{fill:#2e8841;}.cls-3{fill:#fefefe;}.cls-4{fill:none;stroke:#fefefe;stroke-miterlimit:10;stroke-width:1.5px;}.cls-5{fill:#f5f7f5;}.cls-6{fill:#3d4a1f;}.cls-7{fill:#0f0f0f;}.cls-8{fill:#fff;}.cls-9{fill:#c4c5c1;}.cls-10{fill:#969796;}.cls-11{fill:#a35c26;}.cls-12{fill:#515751;}.cls-13{fill:#83451d;}.cls-14{fill:#686968;}</style></defs><title>hypermonstawoo</title><path class="cls-1" d="M133.78,124.75c-18-25-40-31-40-31s-10-7-5-29C93,46.37,117,44.39,124.82,44.24a4.91,4.91,0,0,1,0-.49c0-5,1-8,7-2s9,1,9-1-2-8-11-10-13,5-22,8-12-7-12-7-3-18-11-16-3,10-3,10c11,15,9,27-13,42s-41,29-54,48S.28,171.25.28,171.25c60.3,25.84,111.44,21.76,140.55,15.42C148.79,174.64,151.74,149.69,133.78,124.75Z"/><path class="cls-2" d="M143.78,108.75c-18-20-31-21-40-31s-9-16-3-21,13-3,17-1,6,10,11,12,8-3,8-3c4-7-4-11-4-11s-7.46-4.68-8-9.51c-7.8.15-31.87,2.13-36,20.51-5,22,5,29,5,29s22,6,40,31,15,49.89,7.05,61.92c16.51-3.6,25.95-7.92,25.95-7.92C169.78,146.75,161.78,128.75,143.78,108.75Z"/><path class="cls-3" d="M30.06,62.13a7.83,7.83,0,0,1-4.22-1.27l-.19-.13-.08-.21c-6.38-17,27-41.28,34.37-44.93a7.74,7.74,0,0,1,5.45-.8,5.28,5.28,0,0,1,3.39,2.77c1.41,2.83.43,7.07-4.17,9.37C56.78,30.84,43.87,43.76,39,54.56c-1.87,4.11-4.25,6.58-7.07,7.33A7,7,0,0,1,30.06,62.13Zm-3.17-2.38a6.21,6.21,0,0,0,4.63.69c2.36-.64,4.4-2.83,6.07-6.5,5.11-11.25,18.13-24.25,26.35-28.36,3.77-1.89,4.62-5.13,3.5-7.36a3.8,3.8,0,0,0-2.44-2,6.26,6.26,0,0,0-4.39.7C52.06,21.2,21.57,44.5,26.89,59.75Z"/><circle class="cls-4" cx="22.78" cy="73.75" r="5.5"/><path class="cls-5" d="M140.78,186.75c20-36-11-76-39-90s-57,4-73,24-2,60-2,60,52,20,114,6"/><circle class="cls-6" cx="82.78" cy="148.75" r="29"/><ellipse class="cls-7" cx="82.28" cy="148.22" rx="13.5" ry="14.4"/><circle class="cls-8" cx="68.78" cy="134.75" r="12"/><path class="cls-9" d="M36.28,112.25s14.5-14.5,59.5-8.5c0,0,54,23,30,86l15-3s23.5-34.5-14.5-71.5c0,0-21-24-45.5-23.5C80.78,91.75,56.28,91.25,36.28,112.25Z"/><path class="cls-10" d="M.28,171.25a62.4,62.4,0,0,0,2.49,12.86c6,3.41,29,16.11,50.51,22.14v3s-19.58-2.8-48.84-20.1c6.54,17.75,23.27,43,65.84,48.1,67,8,92-29,95-58C165.28,179.25,93.28,212.25.28,171.25Z"/><path class="cls-11" d="M53.28,206.25c-21.54-6-44.54-18.73-50.51-22.14.46,1.59,1,3.27,1.66,5,29.26,17.3,48.84,20.1,48.84,20.1Z"/><path class="cls-12" d="M125.78,188.75s30-4,41-10c0,0-3.5,68.5-94.5,58.5C72.28,237.25,109.78,233.75,125.78,188.75Z"/><path class="cls-11" d="M105.28,211.25c-.5,2.5-1,3-1,3,1.4-.06,5.31.35,6.72.24l3.83-4.68Z"/><path class="cls-13" d="M162.78,195.75c-13.12,8-36.34,12.32-48,14.06L111,214.49c23.73-1.94,47.79-11.74,47.79-11.74Z"/><path class="cls-3" d="M94.48,192a224.11,224.11,0,0,1-94-20.6L0,171.22,4,95.71A140.77,140.77,0,0,1,16.85,47.92C27.44,26.06,49,0,91.78,0a78.9,78.9,0,0,1,34.11,9.84c16.33,9,37.32,28.17,44.62,68.71.49,1.37,3.59,13.93-3,100.26l0,.45-.42.18c-.19.08-19.7,8.33-49.84,11.43A222.77,222.77,0,0,1,94.48,192ZM1.55,170.28a223,223,0,0,0,115.52,19.1c27.49-2.83,46-9.95,49-11.15,6.76-89,3.19-98.8,3-99.17l-.06-.18c-7.18-40-27.82-58.91-43.87-67.73A77.22,77.22,0,0,0,91.78,1.5c-42,0-63.18,25.6-73.58,47.08A139.06,139.06,0,0,0,5.52,95.79Z"/><path class="cls-14" d="M53.28,202.25s32-4,52,7C105.28,209.25,93.28,202.25,53.28,202.25Z"/><circle class="cls-14" cx="63.78" cy="210.75" r="3.5"/><circle class="cls-14" cx="70.78" cy="208.75" r="1.5"/><circle class="cls-14" cx="91.78" cy="217.75" r="1.5"/><circle class="cls-14" cx="69.78" cy="214.75" r="1.5"/><path class="cls-14" d="M95.07,213.79l-11.95-1.11a2,2,0,0,1-1.81-2.18h0a2,2,0,0,1,2.18-1.81l11.95,1.11A2,2,0,0,1,97.24,212h0A2,2,0,0,1,95.07,213.79Z"/><path class="cls-14" d="M85.5,221.24h0a1.5,1.5,0,0,1-1.36-1.63l.28-3a1.5,1.5,0,0,1,1.63-1.36h0a1.5,1.5,0,0,1,1.36,1.63l-.28,3A1.5,1.5,0,0,1,85.5,221.24Z"/><path class="cls-14" d="M53.28,202.25s-3,14,8,18,29,4,29,4,12.68,1.9,15-12c.15-.89-.06-2,0-3,0,0-2,16.06-19,14C53.28,219.25,57.28,220.25,53.28,202.25Z"/><path class="cls-1" d="M123.28,61.25s6,13,13,3C136.28,64.25,132.28,73.25,123.28,61.25Z"/><path class="cls-1" d="M96.28,65.25"/><path class="cls-1" d="M133,98.41c-10.25-8.17-9.64-6.82-13.72-9.16C119.28,89.25,129.72,94.57,133,98.41Z"/></svg>